<svg xmlns="http://www.w3.org/2000/svg" viewBox="0 0 64 64" role="img" aria-label="Interview Studio">
  <defs>
    <linearGradient id="bg" x1="10" y1="8" x2="56" y2="58" gradientUnits="userSpaceOnUse">
      <stop stop-color="#0f766e" />
      <stop offset="0.58" stop-color="#064e47" />
      <stop offset="1" stop-color="#17324f" />
    </linearGradient>
    <radialGradient id="glow" cx="20" cy="16" r="24" gradientUnits="userSpaceOnUse">
      <stop stop-color="#f0d982" stop-opacity="0.9" />
      <stop offset="1" stop-color="#f0d982" stop-opacity="0" />
    </radialGradient>
  </defs>
  <rect width="64" height="64" rx="14" fill="url(#bg)" />
  <rect width="64" height="64" rx="14" fill="url(#glow)" opacity="0.72" />
  <path d="M18 20.5c0-2 1.6-3.5 3.6-3.2 3.7.5 7 1.8 10.4 4 3.4-2.2 6.7-3.5 10.4-4 2-.3 3.6 1.2 3.6 3.2v24c0 1.8-1.5 3.1-3.2 2.8-3.6-.5-6.8.1-10.8 2.5-4-2.4-7.2-3-10.8-2.5-1.7.3-3.2-1-3.2-2.8v-24Z" fill="none" stroke="#f5f2df" stroke-width="3.4" stroke-linejoin="round" />
  <path d="M32 21.3v28.5M23 24.6c2.8.4 5.6 1.5 9 3.5M41 24.6c-2.8.4-5.6 1.5-9 3.5" fill="none" stroke="#d7efe6" stroke-width="2.2" stroke-linecap="round" stroke-linejoin="round" />
</svg>
